<?xml version="1.0" encoding="utf-8"?>
<!-- Generator: Adobe Illustrator 24.1.2, SVG Export Plug-In . SVG Version: 6.00 Build 0)  -->
<svg version="1.1" id="Lager_1" xmlns="http://www.w3.org/2000/svg" xmlns:xlink="http://www.w3.org/1999/xlink" x="0px" y="0px"
	 viewBox="0 0 287 125" style="enable-background:new 0 0 287 125;" xml:space="preserve">
<style type="text/css">
	.st0{fill:#028EAA;}
	.st1{fill:#ffffff;}
</style>
<g id="Lager_1_1_">
</g>
<g id="Lager_2_1_">
	<g>
		<g>
			<path class="st0" d="M86.26,18.13c-18.95-18.95-49.68-18.96-68.65,0C-1.34,37.08-1.34,67.82,17.62,86.77
				c9.46,9.46,21.87,14.2,34.28,14.21v20.14l34.07-34.07c0.09-0.09,0.19-0.19,0.29-0.28C105.21,67.81,105.21,37.08,86.26,18.13z
				 M73.11,76.53c-11.99,10.59-30.37,10.59-42.37,0c-14-12.36-14.5-33.76-1.49-46.76c12.53-12.53,32.84-12.53,45.36,0
				C87.62,42.77,87.12,64.16,73.11,76.53z"/>
			<path class="st0" d="M40.08,41.47c-5.66,6.1-5.66,15.83-0.01,21.94c6.26,6.77,16.83,6.92,23.29,0.46
				c6.31-6.31,6.31-16.54,0-22.84C56.9,34.56,46.34,34.71,40.08,41.47z"/>
		</g>
	</g>
	<g>
		<g>
			<g>
				<path class="st1" d="M127.04,21.08c-4.88,0-8.85,3.97-8.85,8.85v35.35c0,21.79,16.25,36.44,40.42,36.44c24.27,0,40.58-14.64,40.58-36.44
					V29.93c0-4.88-3.97-8.85-8.85-8.85h-0.16c-4.88,0-8.85,3.97-8.85,8.85v33.61c0,13.47-8.07,20.89-22.72,20.89
					c-14.66,0-22.73-7.42-22.73-20.89V29.93C135.89,25.05,131.92,21.08,127.04,21.08z"/>
				<path class="st1" d="M275.71,21.08h-32.49c-21.89,0-36.61,16.17-36.61,40.24c0,24.16,14.71,40.4,36.61,40.4h32.49c4.85,0,8.8-3.95,8.8-8.8
					v-0.16c0-4.85-3.95-8.8-8.8-8.8h-30.74c-13.53,0-20.98-8.04-20.98-22.63s7.45-22.63,20.98-22.63h30.74c4.85,0,8.8-3.95,8.8-8.8
					S280.57,21.08,275.71,21.08z"/>
			</g>
		</g>
	</g>
</g>
</svg>
